<svg width="131" height="109" viewBox="0 0 131 109" fill="none" xmlns="http://www.w3.org/2000/svg">
<path d="M11.4305 82.44L10.2305 86.448H4.4225L5.5265 82.488L11.4305 82.44ZM15.9425 94.896L12.5825 98.976H0.9185L4.0145 88.032H9.8465L7.9265 94.872L15.9425 94.896ZM34.3886 86.472H18.5726C18.8926 85.384 19.4366 84.464 20.2046 83.712C21.1486 82.8 22.1246 82.344 23.1326 82.344H31.2926C33.3566 82.344 34.3886 83.44 34.3886 85.632C34.3886 86.176 34.3886 86.456 34.3886 86.472ZM34.0526 88.008L33.9566 88.392C33.7006 89.224 33.2606 90.744 32.6366 92.952C32.2366 94.344 31.6206 95.512 30.7886 96.456C29.2846 98.152 27.2686 99 24.7406 99H21.8846C20.3486 99 19.1326 98.712 18.2366 98.136C17.1326 97.448 16.5806 96.384 16.5806 94.944C16.5806 94.176 16.7006 93.36 16.9406 92.496L18.1406 88.056H23.7326L22.0766 93.888C22.0126 94.16 21.9806 94.368 21.9806 94.512C21.9806 94.832 22.1246 95.032 22.4126 95.112H25.8926C26.3246 95 26.6446 94.592 26.8526 93.888L28.5806 88.032L34.0526 88.008ZM51.3433 82.44L50.1913 86.472H34.6152L37.1833 82.44H51.3433ZM49.8553 88.032L48.5353 92.424H40.8313L39.0312 98.976H32.7192L35.7673 88.032H49.8553ZM68.6398 82.44L67.5358 86.424H51.5518L54.0958 82.44H68.6398ZM62.4238 88.032L59.5198 98.976H54.0238L56.9998 88.032H62.4238Z" fill="white"/>
<path d="M86.1944 82.44L85.0904 86.424H69.1064L71.6504 82.44H86.1944ZM79.9784 88.032L77.0744 98.976H71.5784L74.5544 88.032H79.9784ZM100.989 86.472H90.6211L94.0771 82.44H100.125L100.989 86.472ZM103.677 98.976H97.6531L96.0211 92.448H92.6131L87.7891 98.976H80.7571L89.3491 88.008H101.325L103.677 98.976ZM123.947 82.464L120.083 86.448L108.467 86.424L107.507 82.512H113.531L113.987 84.384L115.763 82.488L123.947 82.464ZM118.595 88.032L115.691 91.224L117.323 99L111.083 98.976L110.627 96.96L108.827 99H100.691L109.115 89.688L108.779 88.08L118.595 88.032ZM130.409 82.44L129.305 86.472H123.521L124.673 82.44H130.409ZM128.945 88.032L125.945 98.976H120.113L123.161 88.032H128.945Z" fill="#FDBF5A"/>
<path fill-rule="evenodd" clip-rule="evenodd" d="M65 66C83.2254 66 98 51.2254 98 33C98 29.1726 97.3484 25.4974 96.1501 22.0793L54.0793 64.1501C57.4974 65.3484 61.1726 66 65 66ZM38.3335 52.4435L54.5254 36.2516L35.8296 17.5558C33.3849 22.1638 32 27.4202 32 33C32 40.2698 34.3507 46.9905 38.3335 52.4435ZM49.5558 3.82961L68.2516 22.5254L84.4435 6.33352C78.9905 2.35073 72.2698 0 65 0C59.4202 0 54.1638 1.38486 49.5558 3.82961Z" fill="#FDBF5A"/>
<path d="M42.8775 10.9608L46.9609 15.0441" stroke="#FDBF5A" stroke-width="4"/>
<path d="M51.6128 52.8971L47.5294 56.9804" stroke="#FDBF5A" stroke-width="4"/>
<path d="M58.8922 45.1324L54.8088 49.2157" stroke="#FDBF5A" stroke-width="4"/>
<path d="M66.1716 37.3676L62.0882 41.451" stroke="#FDBF5A" stroke-width="4"/>
<path d="M80.7304 21.8382L76.6471 25.9216" stroke="#FDBF5A" stroke-width="4"/>
<path d="M88.0098 14.0735L83.9265 18.1569" stroke="#FDBF5A" stroke-width="4"/>
<path d="M50.4412 18.4412L54.5245 22.5245" stroke="#FDBF5A" stroke-width="4"/>
<path d="M58.6912 26.6912L62.7745 30.7745" stroke="#FDBF5A" stroke-width="4"/>
<path d="M73.451 29.6029L69.3676 33.6863" stroke="#FDBF5A" stroke-width="4"/>
</svg>
